<svg width="21" height="21" viewBox="0 0 21 21" fill="none" xmlns="http://www.w3.org/2000/svg">
<path d="M13.5518 14.7824C13.0973 14.7824 12.7285 15.1621 12.7285 15.6301V17.1391C12.7285 17.9196 12.112 18.5547 11.3537 18.5547H3.99005C3.232 18.5547 2.61521 17.9196 2.61521 17.1391V3.86093C2.61521 3.08038 3.232 2.44531 3.99005 2.44531H11.3537C12.112 2.44531 12.7285 3.08038 12.7285 3.86093V5.36993C12.7285 5.83791 13.0973 6.21758 13.5518 6.21758C14.0065 6.21758 14.375 5.83791 14.375 5.36993V3.86093C14.375 2.14554 13.0199 0.75 11.3537 0.75H3.99005C2.32408 0.75 0.96875 2.14554 0.96875 3.86093V17.1391C0.96875 18.8545 2.32408 20.25 3.99005 20.25H11.3537C13.0197 20.25 14.375 18.8545 14.375 17.1391V15.6301C14.375 15.1621 14.0065 14.7824 13.5518 14.7824Z" fill="white"/>
<path d="M19.886 9.47782L18.1853 8.24376C17.8519 8.00208 17.3116 8.00208 16.9783 8.24376C16.6449 8.48561 16.6449 8.87756 16.9783 9.11941L18.0279 9.8809H9.13464C8.66328 9.8809 8.28125 10.1581 8.28125 10.5C8.28125 10.842 8.66328 11.1191 9.13464 11.1191H18.0279L16.9783 11.8806C16.6449 12.1225 16.6449 12.5144 16.9783 12.7563C17.145 12.8772 17.3632 12.9375 17.5817 12.9375C17.8001 12.9375 18.0186 12.877 18.185 12.7563L19.886 11.5222C20.663 10.9586 20.663 10.0415 19.886 9.47782Z" fill="white"/>
</svg>
