<svg width="17" height="13" viewBox="0 0 17 13" fill="none" xmlns="http://www.w3.org/2000/svg">
<path d="M15.4062 0.40625H1.59376C0.714907 0.40625 0 1.08962 0 1.9297V11.0703C0 11.9104 0.714907 12.5938 1.59376 12.5938H15.4062C16.2851 12.5938 17 11.9104 17 11.0703V1.9297C17 1.08962 16.2851 0.40625 15.4062 0.40625ZM15.4062 1.42187C15.4784 1.42187 15.5471 1.43619 15.6099 1.46118L8.5 7.35149L1.39011 1.46118C1.45288 1.43622 1.52155 1.42187 1.59373 1.42187H15.4062ZM15.4062 11.5781H1.59376C1.30064 11.5781 1.0625 11.3505 1.0625 11.0703V2.5342L8.15188 8.40727C8.25202 8.49007 8.37601 8.53125 8.5 8.53125C8.62399 8.53125 8.74798 8.4901 8.84812 8.40727L15.9375 2.5342V11.0703C15.9375 11.3505 15.6994 11.5781 15.4062 11.5781Z" fill="#A5A3F4"/>
</svg>
