<svg width="17" height="17" viewBox="0 0 17 17" fill="none" xmlns="http://www.w3.org/2000/svg">
<path d="M13.936 6.52332H3.06392C2.51892 6.52332 2.07556 6.96671 2.07556 7.51167V16.0117C2.07556 16.5567 2.51896 17 3.06392 17H13.936C14.481 17 14.9244 16.5566 14.9244 16.0117V7.51167C14.9244 6.96671 14.481 6.52332 13.936 6.52332ZM13.7383 15.814H3.26161V7.70936H13.7384V15.814H13.7383Z" fill="#A5A3F4"/>
<path d="M8.49999 0C5.8296 0 3.65698 2.19044 3.65698 4.88255V6.9186H4.84303V4.88255C4.84303 2.84435 6.48353 1.18605 8.50002 1.18605C10.5165 1.18605 12.157 2.84435 12.157 4.88255V6.9186H13.3431V4.88255C13.343 2.19044 11.1706 0 8.49999 0Z" fill="#A5A3F4"/>
<path d="M8.40111 11.0697C8.07356 11.0697 7.80811 11.3352 7.80811 11.6627V13.0464C7.80811 13.374 8.0736 13.6394 8.40111 13.6394C8.72863 13.6394 8.99412 13.3739 8.99412 13.0464V11.6627C8.99415 11.3352 8.72866 11.0697 8.40111 11.0697Z" fill="#A5A3F4"/>
</svg>
