<svg width="74" height="44" viewBox="0 0 74 44" fill="none" xmlns="http://www.w3.org/2000/svg">
<g clip-path="url(#clip0)">
<path d="M73.4405 1.21421V41.9414C73.4405 42.5995 73.0021 43.1556 72.4672 43.1556H67.6154C67.0879 43.1556 66.6421 42.6087 66.6421 41.9414V15.618L59.9701 30.0773C59.8066 30.4481 59.4871 30.6798 59.1379 30.6798C58.4024 30.6798 57.912 29.6695 58.2835 28.8631L67.2885 9.3337C67.4297 9.04636 67.66 8.89806 67.8903 8.89806C68.2395 8.89806 68.5813 9.2132 68.5813 9.76006V40.7272H71.4938V2.41916H67.1548L54.4348 30.1885C54.2936 30.5037 54.0187 30.6798 53.7661 30.6798C53.4912 30.6798 53.2609 30.5037 53.0974 30.1885L46.3808 15.6087V41.9321C46.3808 42.5902 45.9424 43.1463 45.4075 43.1463H40.5632C40.0282 43.1463 39.5898 42.5995 39.5898 41.9414V1.21421C39.5898 0.54686 40.0282 0 40.5632 0H46.1059C46.6557 0 47.1683 0.370752 47.4432 0.982494L54.6503 16.7117C55.0217 17.5181 54.5314 18.5284 53.7958 18.5284C53.4763 18.5284 53.1494 18.3244 52.9637 17.9259L45.8681 2.41916H41.529V40.7272H44.4416V9.76006C44.4416 9.2132 44.7908 8.89806 45.1326 8.89806C45.3629 8.89806 45.5709 9.04636 45.7121 9.3337L53.7661 26.7869L65.5871 0.982494C65.862 0.370752 66.3746 0 66.9245 0H72.4672C73.0021 0 73.4405 0.54686 73.4405 1.21421Z" fill="url(#paint0_linear)"/>
<mask id="mask0" mask-type="alpha" maskUnits="userSpaceOnUse" x="39" y="0" width="35" height="44">
<path d="M73.4405 1.21421V41.9414C73.4405 42.5995 73.0021 43.1556 72.4672 43.1556H67.6154C67.0879 43.1556 66.6421 42.6087 66.6421 41.9414V15.618L59.9701 30.0773C59.8066 30.4481 59.4871 30.6798 59.1379 30.6798C58.4024 30.6798 57.912 29.6695 58.2835 28.8631L67.2885 9.3337C67.4297 9.04636 67.66 8.89806 67.8903 8.89806C68.2395 8.89806 68.5813 9.2132 68.5813 9.76006V40.7272H71.4938V2.41916H67.1548L54.4348 30.1885C54.2936 30.5037 54.0187 30.6798 53.7661 30.6798C53.4912 30.6798 53.2609 30.5037 53.0974 30.1885L46.3808 15.6087V41.9321C46.3808 42.5902 45.9424 43.1463 45.4075 43.1463H40.5632C40.0282 43.1463 39.5898 42.5995 39.5898 41.9414V1.21421C39.5898 0.54686 40.0282 0 40.5632 0H46.1059C46.6557 0 47.1683 0.370752 47.4432 0.982494L54.6503 16.7117C55.0217 17.5181 54.5314 18.5284 53.7958 18.5284C53.4763 18.5284 53.1494 18.3244 52.9637 17.9259L45.8681 2.41916H41.529V40.7272H44.4416V9.76006C44.4416 9.2132 44.7908 8.89806 45.1326 8.89806C45.3629 8.89806 45.5709 9.04636 45.7121 9.3337L53.7661 26.7869L65.5871 0.982494C65.862 0.370752 66.3746 0 66.9245 0H72.4672C73.0021 0 73.4405 0.54686 73.4405 1.21421Z" fill="url(#paint1_linear)"/>
</mask>
<g mask="url(#mask0)">
<path d="M42.0614 2.72626H39.3909V16.3576H42.0614V2.72626Z" fill="url(#paint2_linear)"/>
</g>
</g>
<g clip-path="url(#clip1)">
<path d="M29.8339 13.6808C29.8339 18.4357 27.9665 22.412 24.6232 24.8033C24.3955 24.9516 24.1678 25.0351 23.9127 25.0351C23.2659 25.0351 22.7193 24.4882 22.7193 23.793C22.7193 23.4223 22.9198 23.0423 23.2568 22.8106C26.0626 20.7992 27.4472 17.4532 27.4472 13.6808C27.4472 6.73843 22.3823 2.41916 14.6209 2.41916H2.37761V40.7272H5.94857V20.9661C5.94857 20.2709 6.48603 19.7518 7.14193 19.7518H7.39699C8.04378 19.7518 8.64501 20.0392 9.03672 20.586L23.5574 40.7179H27.7478L13.5642 21.2534C13.4184 21.0773 13.3638 20.8826 13.3638 20.6787C13.3638 20.1875 13.7555 19.7611 14.3021 19.7611H14.7849C19.9956 19.7611 21.526 16.9063 21.526 13.6808C21.526 10.0474 19.0026 8.11948 15.0673 8.11948H8.32617V15.2657C8.32617 15.9238 7.78871 16.48 7.13282 16.48C6.48603 16.48 5.93946 15.9331 5.93946 15.2657V6.91454C5.93946 6.21937 6.47692 5.70032 7.13282 5.70032H15.0582C20.4328 5.70032 23.8945 8.84245 23.8945 13.6808C23.8945 18.2596 21.3711 21.3461 17.0441 21.9764L31.3643 41.654C31.5101 41.8302 31.5648 42.0248 31.5648 42.2009C31.5648 42.6922 31.173 43.1556 30.6265 43.1556H23.3479C22.7011 43.1556 22.0999 42.8405 21.7355 42.3214L8.32617 23.7096V41.9414C8.32617 42.5995 7.78871 43.1556 7.13282 43.1556H1.19336C0.537466 43.1463 0 42.5995 0 41.9414V1.21421C0 0.519054 0.537466 0 1.19336 0H14.6391C24.4046 0 29.8339 6.01546 29.8339 13.6808Z" fill="url(#paint3_linear)"/>
<path d="M2.3776 2.43768H0V16.2204H2.3776V2.43768Z" fill="url(#paint4_linear)"/>
<path d="M17.0441 21.9763H14.0835L19.7497 29.7528L22.4279 29.3821L17.0441 21.9763Z" fill="url(#paint5_linear)"/>
</g>
<defs>
<linearGradient id="paint0_linear" x1="34.7174" y1="47.0281" x2="61.7904" y2="-10.3218" gradientUnits="userSpaceOnUse">
<stop stop-color="#0EADB9"/>
<stop offset="0.485128" stop-color="#8A04E0"/>
<stop offset="1" stop-color="#FF30FB"/>
</linearGradient>
<linearGradient id="paint1_linear" x1="34.7174" y1="47.0281" x2="61.7904" y2="-10.3218" gradientUnits="userSpaceOnUse">
<stop stop-color="#0EADB9"/>
<stop offset="0.485128" stop-color="#8A04E0"/>
<stop offset="1" stop-color="#FF30FB"/>
</linearGradient>
<linearGradient id="paint2_linear" x1="37.6329" y1="4.37073" x2="42.9121" y2="15.3701" gradientUnits="userSpaceOnUse">
<stop stop-color="#58038E"/>
<stop offset="1" stop-opacity="0"/>
</linearGradient>
<linearGradient id="paint3_linear" x1="-1.33528" y1="43.9611" x2="36.828" y2="-3.53893" gradientUnits="userSpaceOnUse">
<stop stop-color="#0EADB9"/>
<stop offset="0.494792" stop-color="#8A04E0"/>
<stop offset="1" stop-color="#FF30FB"/>
</linearGradient>
<linearGradient id="paint4_linear" x1="-1.56521" y1="4.09402" x2="4.1849" y2="14.6431" gradientUnits="userSpaceOnUse">
<stop stop-color="#3B0E50"/>
<stop offset="1" stop-opacity="0"/>
</linearGradient>
<linearGradient id="paint5_linear" x1="15.0192" y1="21.2227" x2="19.6336" y2="27.3534" gradientUnits="userSpaceOnUse">
<stop/>
<stop offset="0.0001" stop-color="#3B0E50"/>
<stop offset="1" stop-opacity="0"/>
</linearGradient>
<clipPath id="clip0">
<rect width="37.4497" height="43.1463" fill="white" transform="translate(35.991)"/>
</clipPath>
<clipPath id="clip1">
<rect width="32.0467" height="43.1463" fill="white"/>
</clipPath>
</defs>
</svg>
